<?xml version="1.0" encoding="utf-8"?>
<!-- Generator: Adobe Illustrator 18.0.0, SVG Export Plug-In . SVG Version: 6.00 Build 0)  -->
<!DOCTYPE svg PUBLIC "-//W3C//DTD SVG 1.1//EN" "http://www.w3.org/Graphics/SVG/1.1/DTD/svg11.dtd">
<svg version="1.1" id="Layer_1" xmlns="http://www.w3.org/2000/svg" xmlns:xlink="http://www.w3.org/1999/xlink" x="0px" y="0px"
	 viewBox="0 0 417 216" enable-background="new 0 0 417 216" xml:space="preserve">
<g>
	<g>
		<path fill="#292929" d="M40.9,43.3V13l-11,29.8h-5.7l-11-30.1v30.7H5.7V0.8h10.4l11.2,30.3L38.5,0.8h9.9v42.5H40.9z"/>
	</g>
	<g>
		<path fill="#292929" d="M79.6,39.1c-2.2,2.7-5.9,4.9-10.7,4.9c-4.7,0-8.7-2.3-10.9-4.9c-2.3-2.9-3.4-6.8-3.4-11.4
			c0-4.6,1.1-8.5,3.4-11.4c2.2-2.6,6.1-4.9,10.9-4.9c4.7,0,8.5,2.2,10.7,4.9c1.4,1.9,2.3,4.3,2.4,6.8h-7.4c-0.1-1.1-0.4-2.1-0.9-2.9
			c-0.9-1.4-2.5-2.3-4.8-2.3c-2,0-3.5,0.8-4.6,1.9c-1.8,2-2.1,5-2.1,7.9c0,2.9,0.3,5.9,2.1,7.9c1,1.1,2.5,2,4.6,2
			c2.3,0,3.9-1,4.8-2.3c0.5-0.8,0.8-1.7,0.9-2.9H82C81.8,34.7,81,37.2,79.6,39.1z"/>
	</g>
	<g>
		<path fill="#292929" d="M87.7,43.3V0.8h7.7V36h19.7v7.3H87.7z"/>
	</g>
	<g>
		<path fill="#292929" d="M144.3,43.8c-3.2,0-5-2-5.3-4.4c-1.4,2.5-5,4.7-9.5,4.7c-7.4,0-11.3-4.7-11.3-9.8c0-5.9,4.6-9.4,10.6-9.8
			l9.2-0.7V22c0-2.9-1-4.9-5.3-4.9c-3.5,0-5.5,1.6-5.7,4.4h-7.3c0.4-7,6-10.1,13-10.1c5.3,0,9.9,1.7,11.7,6.4c0.8,2,0.9,4.2,0.9,6.3
			v11.6c0,1.4,0.5,2,1.7,2c0.5,0,1-0.1,1-0.1V43C146.8,43.5,146.1,43.8,144.3,43.8z M138,29.5l-7.9,0.6c-2.3,0.2-4.5,1.6-4.5,4.1
			c0,2.4,2.1,3.9,4.4,3.9c4.7,0,8-2.5,8-7.1V29.5z"/>
	</g>
	<g>
		<path fill="#292929" d="M169,18.8c-5.3,0-8,3.8-8,8.8v15.7h-7.6V12.1h6.4l0.7,4.7c1.4-3.6,5.2-5.1,8.8-5.1c0.8,0,1.6,0.1,2.3,0.2
			v7.2C170.7,18.9,169.8,18.8,169,18.8z"/>
	</g>
	<g>
		<path fill="#292929" d="M202.7,30.1h-20.9c-0.1,2.4,0.8,4.7,2.3,6.1c1.1,1,2.6,1.9,4.6,1.9c2.2,0,3.5-0.4,4.6-1.5
			c0.7-0.7,1.2-1.5,1.5-2.6h7.2c-0.2,1.9-1.4,4.3-2.6,5.8c-2.6,3.1-6.5,4.4-10.5,4.4c-4.3,0-7.4-1.5-9.8-3.8
			c-3.1-3-4.8-7.4-4.8-12.5c0-5,1.5-9.4,4.5-12.5c2.3-2.4,5.7-4,10-4c4.6,0,8.8,1.9,11.4,5.8c2.3,3.4,2.8,7,2.7,10.9
			C202.7,28,202.7,29.4,202.7,30.1z M193.3,19.1c-1-1.1-2.6-1.8-4.7-1.8c-2.3,0-4.1,1-5.2,2.4c-1.1,1.4-1.6,2.8-1.6,4.9h13.5
			C195.2,22.3,194.5,20.5,193.3,19.1z"/>
	</g>
	<g>
		<path fill="#292929" d="M227.7,43.3V24.2c0-3.7-1.2-5.9-5.2-5.9c-2.6,0-4.4,1.7-5.4,4c-1.1,2.5-1,5.7-1,8.3v12.7h-7.5V12.1h6.3
			l0.5,4c1.9-3.3,5.6-4.8,9.2-4.8c6.7,0,10.6,4.7,10.6,11.2v20.8H227.7z"/>
	</g>
	<g>
		<path fill="#292929" d="M284.2,43.3l-0.9-4.7c-1.3,2.5-5.3,5.4-10.7,5.5c-4.9,0.1-9.3-1.2-12.7-4.7c-4.4-4.6-5.5-10.3-5.5-17.3
			c0-7,0.9-12.5,5.5-17.1c3.2-3.2,8.1-5,12.7-5c5.2,0,9.7,1.9,12.6,4.9c2.1,2.2,3.7,4.9,3.9,8.6h-7.9c-0.1-1.7-1-2.8-1.9-3.9
			c-1.5-1.7-3.8-2.6-6.8-2.6c-2.5,0-5.3,1.1-7,2.9c-2.9,3.1-3.3,8.3-3.3,12.2s0.4,9.4,3.4,12.4c1.7,1.8,4.4,2.7,6.9,2.7
			c2.8,0,4.9-1,6.4-2.5c2.3-2.4,2.8-5,2.8-8.3h-10.1V20h17.6v23.3H284.2z"/>
	</g>
	<g>
		<path fill="#292929" d="M312.1,18.8c-5.3,0-8,3.8-8,8.8v15.7h-7.6V12.1h6.4l0.7,4.7c1.4-3.6,5.2-5.1,8.8-5.1
			c0.8,0,1.6,0.1,2.3,0.2v7.2C313.8,18.9,312.9,18.8,312.1,18.8z"/>
	</g>
	<g>
		<path fill="#292929" d="M342.8,39.2c-2.2,2.6-6.2,4.9-10.9,4.9c-4.7,0-8.8-2.2-10.9-4.9c-2.3-2.9-3.7-6.2-3.7-11.5
			c0-5.3,1.3-8.6,3.7-11.5c2.2-2.6,6.2-4.9,10.9-4.9c4.7,0,8.8,2.2,10.9,4.9c2.3,2.9,3.7,6.2,3.7,11.5
			C346.5,33,345.2,36.3,342.8,39.2z M336.6,19.9c-1-1.1-2.7-2-4.7-2s-3.7,0.9-4.7,2c-1.8,2-2.2,4.9-2.2,7.9c0,2.9,0.4,5.9,2.2,7.9
			c1,1.1,2.7,2,4.7,2s3.7-0.9,4.7-2c1.8-2,2.2-4.9,2.2-7.9C338.9,24.8,338.4,21.8,336.6,19.9z"/>
	</g>
	<g>
		<path fill="#292929" d="M372.3,43.3l-0.5-4.1c-1.5,3.1-5,4.9-8.9,4.9c-6.7,0-10.8-4.5-10.8-11.2V12.1h7.5v19.1
			c0,3.7,1.4,5.9,5.4,5.9c1.7,0,2.9-0.7,3.8-1.6c1.8-1.7,2.3-4.5,2.3-7V12.1h7.5v31.2H372.3z"/>
	</g>
	<g>
		<path fill="#292929" d="M409.6,41.6c-1.9,1.6-4.4,2.5-7.6,2.5c-3.7,0-6.7-1.3-8.2-3.1v14.2h-7.5V12.1h6.5l0.5,3.4
			c1.9-2.9,5.3-4.1,8.8-4.1c3.1,0,5.6,1.1,7.6,2.6c3.7,3.1,5.6,7.7,5.6,13.6C415.1,33.8,413.3,38.5,409.6,41.6z M405.5,20.2
			c-1.1-1.4-2.7-2.5-5-2.5c-5.9,0-7.1,5.6-7.1,10.1c0,4.5,1.2,10,7.1,10c2.3,0,4-1.1,5-2.5c1.6-2,2-4.9,2-7.6
			C407.5,25.1,407.1,22.2,405.5,20.2z"/>
	</g>
</g>
<g>
	<g>
		<path fill="#292929" d="M11.9,79.3h-1.8L1,53.8h2l8.1,22.8l8-22.8h2L11.9,79.3z"/>
	</g>
	<g>
		<path fill="#292929" d="M24.7,56.3v-2.5h2.5v2.5H24.7z M25,79.3v-18h1.9v18H25z"/>
	</g>
	<g>
		<path fill="#292929" d="M44.8,77.6c-1.3,1.4-3.5,2.2-5.8,2.2c-2.4,0-4.5-0.8-5.9-2.3c-1-1.2-1.4-2.2-1.5-3.6h1.8
			c0.1,1.1,0.6,2,1.3,2.8c1,1,2.5,1.4,4.2,1.4c1.9,0,3.3-0.4,4.2-1.3c0.6-0.6,1-1.3,1-2.3c0-1.6-1.2-3-3.3-3.3l-3.5-0.5
			c-1.5-0.2-3.1-0.6-4.1-1.8c-0.6-0.8-1-1.7-1-2.8c0-1.4,0.6-2.6,1.5-3.5c1.3-1.2,3.1-1.7,4.9-1.7c2.2,0,4.2,0.7,5.4,2.1
			c0.8,1,1.3,2.2,1.4,3.3h-1.8c-0.1-0.6-0.3-1.5-0.9-2.2c-0.8-1-2.2-1.6-4.1-1.6c-1.4,0-2.4,0.3-3.2,0.8c-0.9,0.6-1.4,1.5-1.4,2.5
			c0,1.5,0.8,2.7,3.5,3l3.4,0.5c3.4,0.5,5,2.8,5,5C46,75.6,45.6,76.7,44.8,77.6z"/>
	</g>
	<g>
		<path fill="#292929" d="M63.2,79.3L63,76c-1,2.3-3.6,3.7-6.1,3.7c-4.1,0-6.3-2.6-6.3-6.6V61.3h1.8v11.8c0,3.1,1.4,4.9,4.6,4.9
			c4.4,0,6-3.8,6-7.7v-9h1.8v18H63.2z"/>
	</g>
	<g>
		<path fill="#292929" d="M85.1,79.4c-2.2,0-2.8-1.6-2.8-3.5c-1,2.6-3.7,3.9-6.5,3.9c-3.5,0-6.2-2.1-6.2-5.5c0-3.2,2.5-5.1,6-5.4
			l6.6-0.5v-1.8c0-3-2-4.1-4.8-4.1c-2.8,0-5,1.3-5.2,4h-1.8c0.3-3.6,3.1-5.7,7-5.7c2.4,0,5.1,0.8,6.1,3.3c0.4,1.1,0.5,2.3,0.5,3.5
			v8.2c0,1.2,0.2,1.9,1.4,1.9c0.2,0,0.3,0,0.5,0v1.6C85.5,79.4,85.5,79.4,85.1,79.4z M82.2,70.1l-6.4,0.4c-2.7,0.2-4.4,1.6-4.4,3.8
			c0,2.6,1.9,3.9,4.5,3.9c4.5,0,6.3-3.7,6.3-7.1V70.1z"/>
	</g>
	<g>
		<path fill="#292929" d="M93.7,79.5c-2.3,0-3.6-1.2-3.6-3.8V53.3h1.8v22.3c0,1.2,0.4,2.2,1.9,2.2c0.7,0,1,0,1.5-0.1v1.6
			C94.9,79.4,94.4,79.5,93.7,79.5z"/>
	</g>
	<g>
		<path fill="#292929" d="M108.3,79.3V53.8h16.3v1.8h-14.4V65h12.7v1.8h-12.7v10.8h14.4v1.8H108.3z"/>
	</g>
	<g>
		<path fill="#292929" d="M141,79.3l-5.5-8l-5.6,8h-2.1l6.5-9.3l-6.4-8.9h2.2l5.5,7.7l5.5-7.7h2.1l-6.4,8.9l6.5,9.3H141z"/>
	</g>
	<g>
		<path fill="#292929" d="M159.8,77.9c-1.2,1.2-2.8,1.9-4.9,1.9c-2.6,0-5-1.4-6-3.5v10.2H147V61.3h1.6l0.2,3.2c1-2.2,3.6-3.6,6-3.6
			c2.1,0,3.6,0.6,4.8,1.7c2,1.8,3,4.6,3,7.7C162.6,73.2,161.7,76.1,159.8,77.9z M158.4,63.9c-0.9-0.8-2.1-1.3-3.6-1.3
			c-1.6,0-2.8,0.6-3.7,1.4c-1.6,1.6-2.3,3.8-2.3,6.3c0,2.7,0.6,4.8,2.3,6.3c0.9,0.9,2.1,1.4,3.8,1.4c1.7,0,2.9-0.6,3.9-1.6
			c1.4-1.5,2-3.8,2-6.1C160.7,67.8,160,65.4,158.4,63.9z"/>
	</g>
	<g>
		<path fill="#292929" d="M170.9,79.5c-2.3,0-3.6-1.2-3.6-3.8V53.3h1.8v22.3c0,1.2,0.4,2.2,1.9,2.2c0.7,0,1,0,1.5-0.1v1.6
			C172.2,79.4,171.7,79.5,170.9,79.5z"/>
	</g>
	<g>
		<path fill="#292929" d="M187.9,77.6c-1.3,1.3-3,2.2-5.3,2.2c-2.2,0-4-0.9-5.3-2.2c-1.9-1.9-2.6-4.2-2.6-7.3s0.7-5.4,2.6-7.3
			c1.3-1.3,3-2.2,5.3-2.2c2.2,0,4,0.9,5.3,2.2c1.9,1.9,2.6,4.2,2.6,7.3S189.7,75.8,187.9,77.6z M186.6,64.2c-0.9-1-2.2-1.6-4-1.6
			c-1.7,0-3,0.6-4,1.6c-1.6,1.7-2,3.8-2,6.1c0,2.3,0.4,4.4,2,6.1c0.9,1,2.2,1.6,4,1.6c1.7,0,3-0.6,4-1.6c1.6-1.7,2-3.8,2-6.1
			C188.6,68,188.2,65.9,186.6,64.2z"/>
	</g>
	<g>
		<path fill="#292929" d="M202.8,62.9c-4.5,0-5.7,4-5.7,7.8v8.6h-1.8v-18h1.6l0.2,3.6c0.8-2.5,3.2-3.8,5.7-3.8c0.6,0,1.2,0,1.8,0.1
			V63C204,62.9,203.4,62.9,202.8,62.9z"/>
	</g>
	<g>
		<path fill="#292929" d="M222.3,79.4c-2.2,0-2.8-1.6-2.8-3.5c-1,2.6-3.7,3.9-6.5,3.9c-3.5,0-6.2-2.1-6.2-5.5c0-3.2,2.5-5.1,6-5.4
			l6.6-0.5v-1.8c0-3-2-4.1-4.8-4.1c-2.8,0-5,1.3-5.2,4h-1.8c0.3-3.6,3.1-5.7,7-5.7c2.4,0,5.1,0.8,6.1,3.3c0.4,1.1,0.5,2.3,0.5,3.5
			v8.2c0,1.2,0.2,1.9,1.4,1.9c0.2,0,0.3,0,0.5,0v1.6C222.7,79.4,222.7,79.4,222.3,79.4z M219.5,70.1l-6.4,0.4
			c-2.7,0.2-4.4,1.6-4.4,3.8c0,2.6,1.9,3.9,4.5,3.9c4.5,0,6.3-3.7,6.3-7.1V70.1z"/>
	</g>
	<g>
		<path fill="#292929" d="M233,79.6c-3.3,0-4.6-2.1-4.6-5.3V63h-3.6v-1.7h3.6v-5l1.8-0.4v5.4h5.6V63h-5.6v11.3c0,2.1,0.6,3.6,3,3.6
			c1,0,1.9-0.1,2.8-0.3v1.6C235,79.4,234.1,79.6,233,79.6z"/>
	</g>
	<g>
		<path fill="#292929" d="M239.9,56.3v-2.5h2.5v2.5H239.9z M240.2,79.3v-18h1.9v18H240.2z"/>
	</g>
	<g>
		<path fill="#292929" d="M260,77.6c-1.3,1.3-3,2.2-5.3,2.2c-2.2,0-4-0.9-5.3-2.2c-1.9-1.9-2.6-4.2-2.6-7.3s0.7-5.4,2.6-7.3
			c1.3-1.3,3-2.2,5.3-2.2c2.2,0,4,0.9,5.3,2.2c1.9,1.9,2.6,4.2,2.6,7.3S261.9,75.8,260,77.6z M258.7,64.2c-0.9-1-2.2-1.6-4-1.6
			c-1.7,0-3,0.6-4,1.6c-1.6,1.7-2,3.8-2,6.1c0,2.3,0.4,4.4,2,6.1c0.9,1,2.2,1.6,4,1.6c1.7,0,3-0.6,4-1.6c1.6-1.7,2-3.8,2-6.1
			C260.7,68,260.3,65.9,258.7,64.2z"/>
	</g>
	<g>
		<path fill="#292929" d="M279.9,79.3V67.5c0-3.1-1.4-4.9-4.6-4.9c-4.4,0-6,3.8-6,7.7v9h-1.8v-18h1.6l0.2,3.3c1-2.3,3.6-3.7,6.1-3.7
			c4.1,0,6.3,2.6,6.3,6.6v11.9H279.9z"/>
	</g>
</g>
<g>
	<rect x="0.7" y="121.3" fill="#292929" width="72" height="4"/>
</g>
<g>
	<g>
		<path fill="#292929" d="M9,208.3c-0.3,0-0.5-0.1-0.7-0.3l-8-8l1.4-1.4l7.3,7.3l7.3-7.3l1.4,1.4l-8,8C9.5,208.2,9.3,208.3,9,208.3z
			"/>
	</g>
	<g>
		<rect x="8" y="183" fill="#292929" width="2" height="24"/>
	</g>
</g>
</svg>
