<?xml version="1.0" encoding="utf-8"?>
<!-- Generator: Adobe Illustrator 18.0.0, SVG Export Plug-In . SVG Version: 6.00 Build 0)  -->
<!DOCTYPE svg PUBLIC "-//W3C//DTD SVG 1.1//EN" "http://www.w3.org/Graphics/SVG/1.1/DTD/svg11.dtd">
<svg version="1.1" id="Layer_1" xmlns="http://www.w3.org/2000/svg" xmlns:xlink="http://www.w3.org/1999/xlink" x="0px" y="0px"
	 viewBox="0 0 400 57" enable-background="new 0 0 400 57" xml:space="preserve">
<g>
	<polygon fill-rule="evenodd" clip-rule="evenodd" fill="#212120" points="143.9,23.3 161.6,23.3 161.6,49.1 173.5,49.1 173.5,57 
		161.6,57 143.9,57 143.9,49.1 143.9,23.3 143.9,23.3 	"/>
	<path fill-rule="evenodd" clip-rule="evenodd" fill="#212120" d="M228.6,57h17.7V37.2h9.8v-7.9h-9.8h-13.8v0c-2,0-3.9,2-3.9,4v4V57
		L228.6,57L228.6,57z"/>
	<path fill-rule="evenodd" clip-rule="evenodd" fill="#212120" d="M300.1,29.2H269c-14.4,0-14.4,27.8,0,27.8h34.4v-7.9h-27.6v-4
		h24.3C307.2,45.1,307.1,29.2,300.1,29.2L300.1,29.2L300.1,29.2L300.1,29.2z M275.9,37.2h13.8v4h-13.8V37.2L275.9,37.2L275.9,37.2z"
		/>
	<path fill-rule="evenodd" clip-rule="evenodd" fill="#212120" d="M182.7,57h31.1c14.4,0,14.4-27.8,0-27.8h-34.4v7.9h27.6v4h-24.3
		C175.6,41.1,175.7,57,182.7,57L182.7,57L182.7,57L182.7,57z M206.9,49.1h-13.8v-4h13.8V49.1L206.9,49.1L206.9,49.1z"/>
	<path fill-rule="evenodd" clip-rule="evenodd" fill="#212120" d="M140,29.2h-34.9c-13.8,0-13.8,27.8,0,27.8H140v-7.9h-22.7
		c-6.5,0-6.5-11.9,0-11.9H140V29.2L140,29.2L140,29.2z"/>
	<polygon fill-rule="evenodd" clip-rule="evenodd" fill="#212120" points="76.9,23.3 76.9,23.3 76.9,23.3 90.7,23.3 90.7,57 73,57 
		73,41.1 55.3,57 37.7,57 37.7,41.1 20,57 0,57 41.7,23.3 41.7,23.3 41.7,23.3 55.3,23.3 55.3,41.1 76.9,23.3 76.9,23.3 	"/>
	<path fill-rule="evenodd" clip-rule="evenodd" fill="#212120" d="M338.9,29.2h6.1c5.8,0,9.4,3.7,9.6,7.5V57h-15.8V43.2
		c0-4.1-3.9-6-11.8-6V57h-17.7V29.2h17.7H338.9L338.9,29.2L338.9,29.2z"/>
	<path fill-rule="evenodd" clip-rule="evenodd" fill="#B92022" d="M322.2,21c64.6-35.8,114.6-23.7,42,20.5
		C380.2,14.6,359.9,12,322.2,21L322.2,21L322.2,21z"/>
</g>
</svg>
