<?xml version="1.0" encoding="utf-8"?>
<!-- Generator: Adobe Illustrator 18.0.0, SVG Export Plug-In . SVG Version: 6.00 Build 0)  -->
<!DOCTYPE svg PUBLIC "-//W3C//DTD SVG 1.1//EN" "http://www.w3.org/Graphics/SVG/1.1/DTD/svg11.dtd">
<svg version="1.1" id="Layer_1" xmlns="http://www.w3.org/2000/svg" xmlns:xlink="http://www.w3.org/1999/xlink" x="0px" y="0px"
	 viewBox="0 0 400 55" enable-background="new 0 0 400 55" xml:space="preserve">
<g>
	<path fill="#141414" d="M163.4,40.6c-2.1,8,3.7,14.4,13.1,14.4l18.7,0l3.5-13.1l-17.4,0c-1.4,0-2.3-1.2-1.9-2.6L189.8,0h-15.6
		L163.4,40.6z"/>
	<path fill="#141414" d="M130.6,26.2l33,0l3.5-13.1h-34.3c-9.3,0-18.6,6.5-20.8,14.4l-3.5,13.1c-2.1,8,3.7,14.4,13.1,14.4h34.3
		l3.5-13.1h-33c-1.4,0-2.3-1.2-1.9-2.6l2.8-10.5C127.7,27.4,129.1,26.2,130.6,26.2z"/>
	<path fill="#141414" d="M255.7,55h15.6l7-26.2c0.4-1.4,1.9-2.6,3.3-2.6h2.6l3.5-13.1l-3.9,0c-9.3,0-18.6,6.5-20.8,14.4L255.7,55z"
		/>
	<path fill="#141414" d="M299.4,39.3l21.3,0c9.3,0,18.3-5.3,20.1-11.8c2.1-8-3.7-14.4-13.1-14.4h-20c-9.3,0-18.6,6.5-20.8,14.4
		l-3.5,13.1c-2.1,8,3.7,14.4,13.1,14.4l34.3,0l3.5-13.1h-33C299.8,41.9,299,40.7,299.4,39.3z M303.9,25.4h20.5
		c0.8,0,1.3,0.7,1.1,1.5c-0.2,0.8-1.1,1.5-1.9,1.5h-20.5c-0.8,0-1.3-0.7-1.1-1.5C302.3,26.1,303.1,25.4,303.9,25.4z"/>
	<path fill="#141414" d="M243.4,28.8h-21.3c-9.3,0-18.3,5.3-20.1,11.8c-2.1,8,3.7,14.4,13.1,14.4h20c9.3,0,18.6-6.5,20.8-14.4
		l3.5-13.1c2.1-8-3.7-14.4-13.1-14.4H212l-3.5,13.1h33C242.9,26.2,243.8,27.4,243.4,28.8z M238.8,42.7h-20.5c-0.8,0-1.3-0.7-1.1-1.5
		c0.2-0.8,1.1-1.5,1.9-1.5h20.5c0.8,0,1.3,0.7,1.1,1.5C240.5,42,239.6,42.7,238.8,42.7z"/>
	<path fill="#141414" d="M103.9,2.6c-3.4,0-7.2,1.5-9.8,3.9v0L67.3,30.7l7.5-28.1H63.5c-3.4,0-6.8,1.5-9.5,3.9l0,0L0,55h14.6l0,0
		c3.1,0,6.4-1.3,8.9-3.4l28.6-25.7L44.4,55h11.2c3.4,0,6.8-1.5,9.5-3.8l27.3-25.3L84.6,55h16.5l14-52.4H103.9z"/>
	<g>
		<path fill="#141414" d="M398.1,27.5c2.1-8-3.7-14.4-13.1-14.4h-20c-9.3,0-18.6,6.5-20.8,14.4L337,55h15.6l7-26.2
			c0.4-1.4,1.9-2.6,3.3-2.6h17.4c1.4,0,2.3,1.2,1.9,2.6l-7,26.2l20.7-19.1L398.1,27.5z"/>
	</g>
	<polygon fill="#E1B416" points="379.3,55 379.3,55 394.9,55 400,35.9 	"/>
</g>
</svg>
