<?xml version="1.0" encoding="utf-8"?>
<!-- Generator: Adobe Illustrator 18.0.0, SVG Export Plug-In . SVG Version: 6.00 Build 0)  -->
<!DOCTYPE svg PUBLIC "-//W3C//DTD SVG 1.1//EN" "http://www.w3.org/Graphics/SVG/1.1/DTD/svg11.dtd">
<svg version="1.1" id="Layer_1" xmlns="http://www.w3.org/2000/svg" xmlns:xlink="http://www.w3.org/1999/xlink" x="0px" y="0px"
	 viewBox="0 0 788 371" enable-background="new 0 0 788 371" xml:space="preserve">
<g>
	<path fill="#141414" d="M163.4,55.6c-2.1,8,3.7,14.4,13.1,14.4l18.7,0l3.5-13.1l-17.4,0c-1.4,0-2.3-1.2-1.9-2.6L189.8,15h-15.6
		L163.4,55.6z"/>
	<path fill="#141414" d="M130.6,41.2l33,0l3.5-13.1h-34.3c-9.3,0-18.6,6.5-20.8,14.4l-3.5,13.1c-2.1,8,3.7,14.4,13.1,14.4h34.3
		l3.5-13.1h-33c-1.4,0-2.3-1.2-1.9-2.6l2.8-10.5C127.7,42.4,129.1,41.2,130.6,41.2z"/>
	<path fill="#141414" d="M255.7,70h15.6l7-26.2c0.4-1.4,1.9-2.6,3.3-2.6h2.6l3.5-13.1l-3.9,0c-9.3,0-18.6,6.5-20.8,14.4L255.7,70z"
		/>
	<path fill="#141414" d="M299.4,54.3l21.3,0c9.3,0,18.3-5.3,20.1-11.8c2.1-8-3.7-14.4-13.1-14.4h-20c-9.3,0-18.6,6.5-20.8,14.4
		l-3.5,13.1c-2.1,8,3.7,14.4,13.1,14.4l34.3,0l3.5-13.1h-33C299.8,56.9,299,55.7,299.4,54.3z M303.9,40.4h20.5
		c0.8,0,1.3,0.7,1.1,1.5c-0.2,0.8-1.1,1.5-1.9,1.5h-20.5c-0.8,0-1.3-0.7-1.1-1.5C302.3,41.1,303.1,40.4,303.9,40.4z"/>
	<path fill="#141414" d="M243.4,43.8h-21.3c-9.3,0-18.3,5.3-20.1,11.8c-2.1,8,3.7,14.4,13.1,14.4h20c9.3,0,18.6-6.5,20.8-14.4
		l3.5-13.1c2.1-8-3.7-14.4-13.1-14.4H212l-3.5,13.1h33C242.9,41.2,243.8,42.4,243.4,43.8z M238.8,57.7h-20.5c-0.8,0-1.3-0.7-1.1-1.5
		c0.2-0.8,1.1-1.5,1.9-1.5h20.5c0.8,0,1.3,0.7,1.1,1.5C240.5,57,239.6,57.7,238.8,57.7z"/>
	<path fill="#141414" d="M103.9,17.6c-3.4,0-7.2,1.5-9.8,3.9v0L67.3,45.7l7.5-28.1H63.5c-3.4,0-6.8,1.5-9.5,3.9l0,0L0,70h14.6l0,0
		c3.1,0,6.4-1.3,8.9-3.4l28.6-25.7L44.4,70h11.2c3.4,0,6.8-1.5,9.5-3.8l27.3-25.3L84.6,70h16.5l14-52.4H103.9z"/>
	<g>
		<path fill="#141414" d="M398.1,42.5c2.1-8-3.7-14.4-13.1-14.4h-20c-9.3,0-18.6,6.5-20.8,14.4L337,70h15.6l7-26.2
			c0.4-1.4,1.9-2.6,3.3-2.6h17.4c1.4,0,2.3,1.2,1.9,2.6l-7,26.2l20.7-19.1L398.1,42.5z"/>
	</g>
	<polygon fill="#E1B416" points="379.3,70 379.3,70 394.9,70 400,50.9 	"/>
</g>
<polygon fill="#141414" points="362.8,309.1 362.8,309.1 412.6,309.1 428.8,249.1 "/>
<polygon fill="#BFC0C0" points="253.2,309.1 253.2,309.1 303,309.1 319.2,249.1 "/>
<polygon fill="#E1B416" points="147.2,309.1 147.2,309.1 197,309.1 213.2,249.1 "/>
<polygon fill="#F0F1E6" points="468.8,309.1 468.8,309.1 518.6,309.1 534.8,249.1 "/>
<polygon fill="#B11A1B" points="574.8,309.1 574.8,309.1 624.6,309.1 640.8,249.1 "/>
<polyline fill="none" stroke="#545555" stroke-width="2" stroke-miterlimit="10" points="398,334 398,342 640,342 640,334 "/>
<polyline fill="none" stroke="#545555" stroke-width="2" stroke-miterlimit="10" points="148,334 148,342 390,342 390,334 "/>
<line fill="none" stroke="#545555" stroke-width="2" stroke-miterlimit="10" x1="519" y1="350" x2="519" y2="342"/>
<line fill="none" stroke="#545555" stroke-width="2" stroke-miterlimit="10" x1="269" y1="350" x2="269" y2="342"/>
<g>
	<path fill="#545555" d="M209.5,370.4v-9.5l-3.9,9.4h-0.7L201,361v9.4h-0.8v-10.6h1.1l3.9,9.4l3.9-9.4h1.1v10.6H209.5z"/>
	<path fill="#545555" d="M216,370.6c-0.9,0-1.7-0.4-2.2-0.9c-0.8-0.8-1.1-1.8-1.1-3.1s0.3-2.3,1.1-3.1c0.5-0.5,1.3-0.9,2.2-0.9
		c1.6,0,2.7,1,2.9,2.5h-0.8c-0.2-1-1-1.8-2.1-1.8c-0.7,0-1.3,0.2-1.7,0.6c-0.7,0.7-0.8,1.6-0.8,2.6s0.1,1.9,0.8,2.6
		c0.4,0.4,0.9,0.6,1.7,0.6c1.2,0,2-0.8,2.1-1.8h0.8C218.7,369.5,217.5,370.6,216,370.6z"/>
	<path fill="#545555" d="M221.2,370.4v-10.6h0.8v9.9h5.5v0.7H221.2z"/>
	<path fill="#545555" d="M235.1,370.4c-0.9,0-1.2-0.7-1.2-1.5c-0.4,1.1-1.5,1.6-2.7,1.6c-1.5,0-2.6-0.9-2.6-2.3c0-1.3,1-2.1,2.5-2.2
		l2.8-0.2v-0.7c0-1.2-0.8-1.7-2-1.7c-1.2,0-2.1,0.5-2.2,1.6H229c0.1-1.5,1.3-2.4,2.9-2.4c1,0,2.1,0.3,2.5,1.4
		c0.2,0.5,0.2,0.9,0.2,1.4v3.4c0,0.5,0.1,0.8,0.6,0.8c0.1,0,0.1,0,0.2,0v0.7C235.2,370.4,235.2,370.4,235.1,370.4z M233.9,366.5
		l-2.7,0.2c-1.1,0.1-1.8,0.7-1.8,1.6c0,1.1,0.8,1.6,1.9,1.6c1.9,0,2.6-1.5,2.6-3V366.5z"/>
	<path fill="#545555" d="M240.8,363.5c-1.9,0-2.4,1.7-2.4,3.3v3.6h-0.8v-7.5h0.7l0.1,1.5c0.3-1,1.3-1.6,2.4-1.6c0.2,0,0.5,0,0.7,0
		v0.8C241.3,363.6,241,363.5,240.8,363.5z"/>
	<path fill="#545555" d="M249.2,366.8h-5.7c0,0.9,0.3,1.7,0.8,2.2c0.4,0.5,1,0.8,1.8,0.8c0.7,0,1.2-0.2,1.6-0.7
		c0.3-0.3,0.5-0.6,0.6-1.1h0.8c-0.1,0.6-0.4,1.2-0.8,1.6c-0.5,0.5-1.3,0.9-2.1,0.9c-1.1,0-1.8-0.5-2.4-1.1c-0.6-0.7-1-1.7-1-2.9
		c0-0.9,0.1-1.9,0.7-2.7c0.6-0.9,1.5-1.3,2.6-1.3c2,0,3.2,1.7,3.2,3.6C249.2,366.5,249.2,366.6,249.2,366.8z M246,363.4
		c-1.5,0-2.5,1.2-2.5,2.7h5C248.4,364.7,247.5,363.4,246,363.4z"/>
	<path fill="#545555" d="M256.6,370.4v-4.9c0-1.3-0.6-2.1-1.9-2.1c-1.8,0-2.5,1.6-2.5,3.2v3.7h-0.8v-7.5h0.7l0.1,1.4
		c0.4-0.9,1.5-1.6,2.5-1.6c1.7,0,2.6,1.1,2.6,2.7v4.9H256.6z"/>
	<path fill="#545555" d="M270.1,370.4l-1.1-2.8h-5.1l-1,2.8H262l4-10.6h0.8l4.1,10.6H270.1z M266.4,360.8l-2.3,6h4.6L266.4,360.8z"
		/>
	<path fill="#545555" d="M277.6,370.4l-0.1-1.4c-0.4,1-1.5,1.6-2.5,1.6c-1.7,0-2.6-1.1-2.6-2.7v-5h0.8v4.9c0,1.3,0.6,2.1,1.9,2.1
		c1.8,0,2.5-1.6,2.5-3.2v-3.8h0.8v7.5H277.6z"/>
	<path fill="#545555" d="M283.6,370.5c-1.4,0-1.9-0.9-1.9-2.2v-4.7h-1.5v-0.7h1.5v-2.1l0.8-0.2v2.2h2.3v0.7h-2.3v4.7
		c0,0.9,0.2,1.5,1.2,1.5c0.4,0,0.8-0.1,1.2-0.1v0.7C284.4,370.4,284,370.5,283.6,370.5z"/>
	<path fill="#545555" d="M291.6,369.7c-0.5,0.5-1.3,0.9-2.2,0.9c-0.9,0-1.7-0.4-2.2-0.9c-0.8-0.8-1.1-1.8-1.1-3s0.3-2.3,1.1-3
		c0.5-0.5,1.3-0.9,2.2-0.9c0.9,0,1.7,0.4,2.2,0.9c0.8,0.8,1.1,1.8,1.1,3S292.4,368.9,291.6,369.7z M291.1,364.1
		c-0.4-0.4-0.9-0.7-1.6-0.7c-0.7,0-1.3,0.3-1.6,0.7c-0.7,0.7-0.8,1.6-0.8,2.6s0.2,1.8,0.8,2.5c0.4,0.4,0.9,0.7,1.6,0.7
		c0.7,0,1.3-0.3,1.6-0.7c0.7-0.7,0.8-1.6,0.8-2.5S291.7,364.8,291.1,364.1z"/>
	<path fill="#545555" d="M304.6,370.4v-4.9c0-1.3-0.5-2.1-1.8-2.1c-0.6,0-1,0.2-1.3,0.5c-0.6,0.6-0.9,1.3-0.9,2.2v4.2h-0.8v-4.9
		c0-1.3-0.5-2.1-1.8-2.1c-0.6,0-1,0.2-1.3,0.5c-0.7,0.6-0.9,1.7-0.9,2.7v3.7H295v-7.5h0.7l0.1,1.3c0.4-0.9,1.2-1.5,2.3-1.5
		c1.3,0,2.1,0.6,2.4,1.6c0.4-0.9,1.2-1.6,2.4-1.6c1.8,0,2.5,1.1,2.5,2.7v4.9H304.6z"/>
	<path fill="#545555" d="M312.9,369.7c-0.5,0.5-1.3,0.9-2.2,0.9c-0.9,0-1.7-0.4-2.2-0.9c-0.8-0.8-1.1-1.8-1.1-3s0.3-2.3,1.1-3
		c0.5-0.5,1.3-0.9,2.2-0.9c0.9,0,1.7,0.4,2.2,0.9c0.8,0.8,1.1,1.8,1.1,3S313.7,368.9,312.9,369.7z M312.4,364.1
		c-0.4-0.4-0.9-0.7-1.6-0.7c-0.7,0-1.3,0.3-1.6,0.7c-0.7,0.7-0.8,1.6-0.8,2.6s0.2,1.8,0.8,2.5c0.4,0.4,0.9,0.7,1.6,0.7
		c0.7,0,1.3-0.3,1.6-0.7c0.7-0.7,0.8-1.6,0.8-2.5S313.1,364.8,312.4,364.1z"/>
	<path fill="#545555" d="M318.6,370.5c-1.4,0-1.9-0.9-1.9-2.2v-4.7h-1.5v-0.7h1.5v-2.1l0.8-0.2v2.2h2.3v0.7h-2.3v4.7
		c0,0.9,0.2,1.5,1.2,1.5c0.4,0,0.8-0.1,1.2-0.1v0.7C319.5,370.4,319,370.5,318.6,370.5z"/>
	<path fill="#545555" d="M321.8,360.8v-1h1.1v1H321.8z M321.9,370.4v-7.5h0.8v7.5H321.9z"/>
	<path fill="#545555" d="M328.2,370.4h-0.8l-3-7.5h0.9l2.5,6.4l2.4-6.4h0.8L328.2,370.4z"/>
	<path fill="#545555" d="M338.6,366.8h-5.7c0,0.9,0.3,1.7,0.8,2.2c0.4,0.5,1,0.8,1.8,0.8c0.7,0,1.2-0.2,1.6-0.7
		c0.3-0.3,0.5-0.6,0.6-1.1h0.8c-0.1,0.6-0.4,1.2-0.8,1.6c-0.5,0.5-1.3,0.9-2.1,0.9c-1.1,0-1.8-0.5-2.4-1.1c-0.6-0.7-1-1.7-1-2.9
		c0-0.9,0.1-1.9,0.7-2.7c0.6-0.9,1.5-1.3,2.6-1.3c2,0,3.2,1.7,3.2,3.6C338.6,366.5,338.6,366.6,338.6,366.8z M335.4,363.4
		c-1.5,0-2.5,1.2-2.5,2.7h5C337.8,364.7,336.9,363.4,335.4,363.4z"/>
</g>
<g>
	<path fill="#545555" d="M465.5,370.4v-9.5l-3.9,9.4H461l-3.9-9.3v9.4h-0.8v-10.6h1.1l3.9,9.4l3.9-9.4h1.1v10.6H465.5z"/>
	<path fill="#545555" d="M472,370.6c-0.9,0-1.7-0.4-2.2-0.9c-0.8-0.8-1.1-1.8-1.1-3.1s0.3-2.3,1.1-3.1c0.5-0.5,1.3-0.9,2.2-0.9
		c1.6,0,2.7,1,2.9,2.5h-0.8c-0.2-1-1-1.8-2.1-1.8c-0.7,0-1.3,0.2-1.7,0.6c-0.7,0.7-0.8,1.6-0.8,2.6s0.1,1.9,0.8,2.6
		c0.4,0.4,0.9,0.6,1.7,0.6c1.2,0,2-0.8,2.1-1.8h0.8C474.8,369.5,473.6,370.6,472,370.6z"/>
	<path fill="#545555" d="M477.2,370.4v-10.6h0.8v9.9h5.5v0.7H477.2z"/>
	<path fill="#545555" d="M491.1,370.4c-0.9,0-1.2-0.7-1.2-1.5c-0.4,1.1-1.5,1.6-2.7,1.6c-1.5,0-2.6-0.9-2.6-2.3c0-1.3,1-2.1,2.5-2.2
		l2.8-0.2v-0.7c0-1.2-0.8-1.7-2-1.7c-1.2,0-2.1,0.5-2.2,1.6h-0.8c0.1-1.5,1.3-2.4,2.9-2.4c1,0,2.1,0.3,2.5,1.4
		c0.2,0.5,0.2,0.9,0.2,1.4v3.4c0,0.5,0.1,0.8,0.6,0.8c0.1,0,0.1,0,0.2,0v0.7C491.3,370.4,491.3,370.4,491.1,370.4z M489.9,366.5
		l-2.7,0.2c-1.1,0.1-1.8,0.7-1.8,1.6c0,1.1,0.8,1.6,1.9,1.6c1.9,0,2.6-1.5,2.6-3V366.5z"/>
	<path fill="#545555" d="M496.8,363.5c-1.9,0-2.4,1.7-2.4,3.3v3.6h-0.8v-7.5h0.7l0.1,1.5c0.3-1,1.3-1.6,2.4-1.6c0.2,0,0.5,0,0.7,0
		v0.8C497.3,363.6,497.1,363.5,496.8,363.5z"/>
	<path fill="#545555" d="M505.2,366.8h-5.7c0,0.9,0.3,1.7,0.8,2.2c0.4,0.5,1,0.8,1.8,0.8c0.7,0,1.2-0.2,1.6-0.7
		c0.3-0.3,0.5-0.6,0.6-1.1h0.8c-0.1,0.6-0.4,1.2-0.8,1.6c-0.5,0.5-1.3,0.9-2.1,0.9c-1.1,0-1.8-0.5-2.4-1.1c-0.6-0.7-1-1.7-1-2.9
		c0-0.9,0.1-1.9,0.7-2.7c0.6-0.9,1.5-1.3,2.6-1.3c2,0,3.2,1.7,3.2,3.6C505.3,366.5,505.2,366.6,505.2,366.8z M502.1,363.4
		c-1.5,0-2.5,1.2-2.5,2.7h5C504.5,364.7,503.6,363.4,502.1,363.4z"/>
	<path fill="#545555" d="M512.7,370.4v-4.9c0-1.3-0.6-2.1-1.9-2.1c-1.8,0-2.5,1.6-2.5,3.2v3.7h-0.8v-7.5h0.7l0.1,1.4
		c0.4-0.9,1.5-1.6,2.5-1.6c1.7,0,2.6,1.1,2.6,2.7v4.9H512.7z"/>
	<path fill="#545555" d="M526.3,370.4v-5.2h-5.9v5.2h-0.8v-10.6h0.8v4.6h5.9v-4.6h0.8v10.6H526.3z"/>
	<path fill="#545555" d="M535,369.7c-0.5,0.5-1.3,0.9-2.2,0.9c-0.9,0-1.7-0.4-2.2-0.9c-0.8-0.8-1.1-1.8-1.1-3s0.3-2.3,1.1-3
		c0.5-0.5,1.3-0.9,2.2-0.9c0.9,0,1.7,0.4,2.2,0.9c0.8,0.8,1.1,1.8,1.1,3S535.8,368.9,535,369.7z M534.5,364.1
		c-0.4-0.4-0.9-0.7-1.7-0.7c-0.7,0-1.3,0.3-1.6,0.7c-0.7,0.7-0.8,1.6-0.8,2.6s0.2,1.8,0.8,2.5c0.4,0.4,0.9,0.7,1.6,0.7
		c0.7,0,1.3-0.3,1.7-0.7c0.7-0.7,0.8-1.6,0.8-2.5S535.1,364.8,534.5,364.1z"/>
	<path fill="#545555" d="M543.6,370.4v-4.9c0-1.3-0.6-2.1-1.9-2.1c-1.8,0-2.5,1.6-2.5,3.2v3.7h-0.8v-7.5h0.7l0.1,1.4
		c0.4-0.9,1.5-1.6,2.5-1.6c1.7,0,2.6,1.1,2.6,2.7v4.9H543.6z"/>
	<path fill="#545555" d="M552.3,370.4l-0.1-1.3c-0.4,0.9-1.5,1.5-2.5,1.5c-0.9,0-1.5-0.3-2-0.7c-0.8-0.7-1.2-1.9-1.2-3.2
		c0-1.2,0.4-2.4,1.2-3.2c0.5-0.5,1.2-0.8,2-0.8c1.1,0,2.1,0.6,2.5,1.5v-4.6h0.8v10.8H552.3z M551.2,364c-0.4-0.4-0.9-0.6-1.6-0.6
		c-0.7,0-1.2,0.3-1.6,0.7c-0.6,0.6-0.8,1.6-0.8,2.6c0,1.1,0.3,2.1,1,2.7c0.4,0.3,0.9,0.5,1.5,0.5c0.7,0,1.2-0.2,1.5-0.6
		c0.7-0.7,1-1.6,1-2.6C552.2,365.5,551.9,364.7,551.2,364z"/>
	<path fill="#545555" d="M561.7,370.4c-0.9,0-1.2-0.7-1.2-1.5c-0.4,1.1-1.5,1.6-2.7,1.6c-1.5,0-2.6-0.9-2.6-2.3c0-1.3,1-2.1,2.5-2.2
		l2.8-0.2v-0.7c0-1.2-0.8-1.7-2-1.7c-1.2,0-2.1,0.5-2.2,1.6h-0.8c0.1-1.5,1.3-2.4,2.9-2.4c1,0,2.1,0.3,2.5,1.4
		c0.2,0.5,0.2,0.9,0.2,1.4v3.4c0,0.5,0.1,0.8,0.6,0.8c0.1,0,0.1,0,0.2,0v0.7C561.9,370.4,561.9,370.4,561.7,370.4z M560.6,366.5
		l-2.7,0.2c-1.1,0.1-1.8,0.7-1.8,1.6c0,1.1,0.8,1.6,1.9,1.6c1.9,0,2.6-1.5,2.6-3V366.5z"/>
	<path fill="#545555" d="M568.5,360.5v4.1h5.3v0.8h-5.3v5h-0.8v-10.6h6.7v0.8H568.5z"/>
	<path fill="#545555" d="M579.2,370.4v-9.5l-2.6,1.9V362l2.7-2h0.7v10.4H579.2z"/>
</g>
<g>
	<path fill="#141414" d="M788,0h-18.3c-5.5,0-11.7,2.4-16.1,6.3v0l-43.7,39.3L722.1,0h-18.3c-5.5,0-11.2,2.4-15.6,6.3l0,0L600,85
		h23.8l0,0c5.1,0,10.4-2.1,14.6-5.5l46.7-41.8L672.4,85h18.3c5.5,0,11.1-2.4,15.5-6.2l44.6-41.1l-12.3,45.9l36.7-33.8L788,0z"/>
	<polygon fill="#F1A21E" points="743.5,83.7 743.5,83.7 771.7,83.3 780.2,49.9 	"/>
</g>
</svg>
