<?xml version="1.0" encoding="utf-8"?>
<!-- Generator: Adobe Illustrator 18.0.0, SVG Export Plug-In . SVG Version: 6.00 Build 0)  -->
<!DOCTYPE svg PUBLIC "-//W3C//DTD SVG 1.1//EN" "http://www.w3.org/Graphics/SVG/1.1/DTD/svg11.dtd">
<svg version="1.1" id="Layer_1" xmlns="http://www.w3.org/2000/svg" xmlns:xlink="http://www.w3.org/1999/xlink" x="0px" y="0px"
	 viewBox="0 0 300 300" enable-background="new 0 0 300 300" xml:space="preserve">
<g>
	<circle fill="#B11A1B" cx="150" cy="150" r="150"/>
	<g>
		<path fill="#F0F1E6" d="M169.4,135.9l-4,14.8c-1.1,4.3,2,7.7,7.1,7.7l11.5,0l-1.5,5.6h8.4l6-22.5h-8.4l-2.3,8.4
			c-0.2,0.8-1,1.4-1.8,1.4l-9.4,0c-0.8,0-1.2-0.6-1-1.4l3.8-14.1H169.4z"/>
		<path fill="#F0F1E6" d="M136.5,135.9h-6.1c-1.8,0-3.9,0.8-5.3,2.1v0l-14.4,13l4-15.1h-6.1c-1.8,0-3.7,0.8-5.1,2.1l0,0l-29.2,26.1
			h7.9l0,0c1.7,0,3.4-0.7,4.8-1.8l15.4-13.8l-4.2,15.6h6.1c1.8,0,3.7-0.8,5.1-2.1l14.8-13.6l-4.2,15.6h8.9L136.5,135.9z"/>
		<path fill="#F0F1E6" d="M140.8,158.4l11.5,0c5,0,10.1-3.5,11.2-7.7l1.9-7c1.1-4.3-2-7.7-7.1-7.7l-10.8,0c-5,0-10.1,3.5-11.2,7.7
			l-5.5,20.4l8.4,0L140.8,158.4z M144.5,144.4c0.2-0.8,1-1.4,1.8-1.4l9.4,0c0.8,0,1.2,0.6,1,1.4l-1.5,5.6c-0.2,0.8-1,1.4-1.8,1.4
			l-9.4,0c-0.8,0-1.2-0.6-1-1.4L144.5,144.4z"/>
		<polygon fill="#F0F1E6" points="226.8,152.8 197.7,152.8 199.2,147.2 228.3,147.2 		"/>
		<path fill="#F0F1E6" d="M279.5,135.9h-9.4c-5,0-10.1,3.5-11.2,7.7l-3.4,12.6c-1.1,4.3,2,7.7,7.1,7.7h9.4c5,0,10.1-3.5,11.2-7.7
			l3.4-12.6C287.7,139.4,284.5,135.9,279.5,135.9z M274.9,155.6c-0.2,0.8-1,1.4-1.8,1.4h-8c-0.8,0-1.2-0.6-1-1.4l3-11.3
			c0.2-0.8,1-1.4,1.8-1.4h8c0.8,0,1.2,0.6,1,1.4L274.9,155.6z"/>
		<path fill="#F0F1E6" d="M256.9,143.7c1.1-4.3-2-7.7-7.1-7.7h-15.7l-1.9,7h15c0.8,0,1.2,0.6,1,1.4l-0.2,0.7c-0.2,0.8-1,1.4-1.8,1.4
			h-8.4l-1.9,7h8.4c0.8,0,1.2,0.6,1,1.4l-0.2,0.7c-0.2,0.8-1,1.4-1.8,1.4h-15l-1.9,7h15.7c5,0,10.1-3.5,11.2-7.7l0.6-2.1
			c0.4-1.6,0.3-3-0.4-4.2c1.3-1.2,2.2-2.7,2.6-4.2L256.9,143.7z"/>
	</g>
</g>
</svg>
